<svg width="729" height="686" viewBox="0 0 729 686" fill="none" xmlns="http://www.w3.org/2000/svg">
<path d="M481 48C527.667 50.6667 566 68.6667 596 102C626 134.667 647.667 172 661 214C674.333 256 681 299 681 343C681 387 674.333 430 661 472C648.333 514 626.667 551.667 596 585C566 617.667 527.667 635.333 481 638H113C95 637.333 79.6667 631 67 619C55 606.333 48.6667 591 48 573V325C48.6667 306.333 55.6667 291 69 279C82.3333 266.333 98.3333 260 117 260C135 260.667 150.333 267.333 163 280C175.667 292 182.333 307 183 325V477C183 495 192.333 504 211 504H447C472.333 502.667 493.333 493 510 475C526.667 457 538.667 436.667 546 414C554 390.667 558 367 558 343C558 319 554 295.667 546 273C538.667 249.667 526.667 229 510 211C493.333 193 472.333 183.333 447 182H113C73 178.667 51.3333 157 48 117C48 98.3333 54 82.3333 66 69C78.6667 55.6667 94.3333 48.6667 113 48H481Z" fill="#F4A261"/>
</svg>
